<?xml version="1.0" encoding="UTF-8" standalone="no"?>
<!-- Created with Inkscape (http://www.inkscape.org/) -->

<svg
   xmlns:dc="http://purl.org/dc/elements/1.1/"
   xmlns:cc="http://creativecommons.org/ns#"
   xmlns:rdf="http://www.w3.org/1999/02/22-rdf-syntax-ns#"
   xmlns:svg="http://www.w3.org/2000/svg"
   xmlns="http://www.w3.org/2000/svg"
   xmlns:sodipodi="http://sodipodi.sourceforge.net/DTD/sodipodi-0.dtd"
   xmlns:inkscape="http://www.inkscape.org/namespaces/inkscape"
   width="210mm"
   height="120mm"
   viewBox="0 0 210 120"
   version="1.1"
   id="svg8"
   inkscape:version="0.92.4 (5da689c313, 2019-01-14)"
   sodipodi:docname="firma_bianca.svg">
  <defs
     id="defs2" />
  <sodipodi:namedview
     id="base"
     pagecolor="#ffffff"
     bordercolor="#666666"
     borderopacity="1.0"
     inkscape:pageopacity="0.0"
     inkscape:pageshadow="2"
     inkscape:zoom="0.35"
     inkscape:cx="-210"
     inkscape:cy="560"
     inkscape:document-units="mm"
     inkscape:current-layer="layer1"
     showgrid="false"
     inkscape:window-width="1920"
     inkscape:window-height="1001"
     inkscape:window-x="-9"
     inkscape:window-y="-9"
     inkscape:window-maximized="1" />
  <metadata
     id="metadata5">
    <rdf:RDF>
      <cc:Work
         rdf:about="">
        <dc:format>image/svg+xml</dc:format>
        <dc:type
           rdf:resource="http://purl.org/dc/dcmitype/StillImage" />
        <dc:title></dc:title>
      </cc:Work>
    </rdf:RDF>
  </metadata>
  <g
     inkscape:label="Livello 1"
     inkscape:groupmode="layer"
     id="layer1"
     transform="translate(0,-177)">
    <g
       transform="translate(-0.74489667,-0.81564867)"
       id="layer1-4"
       inkscape:label="Livello 1"
       style="fill:#ffffff;fill-opacity:1">
      <path
         sodipodi:nodetypes="ccsccssscccsssscscscsccccccccscccccscccscccscccccccccscscccccssccccscscccccccscscssccccccccsccccccccscc"
         inkscape:connector-curvature="0"
         id="path4529"
         d="m 12.020182,292.23147 c -1.596265,-1.59619 -1.09632,-12.71193 1.044913,-23.23274 1.106523,-5.43689 2.455401,-15.71266 2.997512,-22.83546 0.542083,-7.1225 1.844659,-14.62849 2.894566,-16.67985 2.16261,-4.2253 3.413116,-12.8246 4.391703,-30.19973 0.537975,-9.55314 0.268755,-11.96605 -1.335183,-11.96605 -2.127903,0 -9.454247,10.9925 -13.0298102,19.55009 -1.9254637,4.60831 -5.1827691,7.02243 -5.1827691,3.84106 0,-2.42178 6.2843813,-15.4522 10.7427743,-22.27488 8.51229,-13.02614 13.420218,-7.36157 11.831916,13.65597 -0.561594,7.43113 -1.372525,14.97959 -1.802139,16.77443 -0.658211,2.7499 -0.185767,3.26352 3.00217,3.26352 6.10796,0 9.584983,4.69223 9.584983,12.93512 0,8.48811 1.043176,11.72204 3.781242,11.72204 1.529874,0 2.020446,-2.40656 2.020446,-9.91114 0,-5.45137 0.429503,-10.34085 0.954364,-10.86576 2.335828,-2.3357 4.847326,2.7346 4.847326,9.78616 0,10.57963 3.691596,13.69369 9.875402,8.33065 2.805492,-2.43328 6.079236,-8.79852 6.079236,-11.82025 0,-0.68053 -2.226684,-2.61389 -4.948189,-4.29587 -5.602582,-3.46254 -8.105611,-9.16212 -8.105611,-18.45715 0,-5.3286 0.569714,-6.60105 3.566648,-7.96658 2.834776,-1.29159 4.289205,-1.15165 7.088041,0.68239 4.869571,3.19061 9.569618,11.24418 10.813141,18.52856 1.066187,6.24548 1.869277,7.04941 10.078851,10.09056 4.640331,1.71905 4.716551,1.89632 4.885711,11.3606 0.246257,13.77677 -0.356691,16.6005 -2.961602,13.86891 -1.977123,-2.07313 -2.914833,-12.2984 -1.475107,-16.08524 1.901857,-5.00214 0.200798,-7.98318 -4.260349,-7.46584 -3.490409,0.40515 -3.891889,1.15717 -4.879166,9.14363 -1.334298,10.79368 -6.617456,15.73823 -11.076025,10.36586 -1.86949,-2.25254 -14.81564,-1.73183 -20.022222,0.80561 -1.741079,0.84854 -4.148032,1.16555 -5.348764,0.70478 -2.65489,-1.01881 -5.245546,-9.76701 -5.256543,-17.75057 -0.0087,-6.59919 -1.903983,-9.34657 -5.75239,-8.34008 -5.609536,1.46691 -8.759919,16.29143 -8.759919,41.22073 0,19.00668 -2.276655,27.52505 -6.285157,23.51652 z m 59.249045,-52.83774 c 1.515955,-8.97289 -1.478616,-10.26326 -3.232493,-1.39297 -1.130711,5.71843 -1.044941,7.33375 0.389361,7.33375 1.022882,0 2.285001,-2.63713 2.843132,-5.94078 z m -0.780592,-14.72772 c -0.04387,-4.52337 -4.735801,-14.31148 -8.438628,-17.60525 -4.405164,-3.91854 -7.484162,-0.97204 -7.484162,7.1622 0,5.31572 0.700965,6.7966 4.713872,9.95922 6.059269,4.77549 11.252996,4.99964 11.208918,0.48354 z m 97.920125,44.93828 c -0.34632,-0.98364 -0.8112,-5.29649 -1.03291,-9.58406 l -0.40233,-7.79574 -4.80399,6.70794 c -6.18853,8.64103 -8.10315,8.70189 -13.79515,0.43874 -1.70158,-2.47004 -2.14415,-2.31153 -6.77842,2.42831 -5.54994,5.67606 -9.11832,5.27839 -10.74373,-1.19777 -1.04871,-4.17834 -2.61298,-4.62483 -5.2157,-1.48874 -0.99308,1.19665 -3.37373,2.17561 -5.29032,2.17561 -2.71158,0 -3.67781,-0.96533 -4.35499,-4.35123 -0.95377,-4.76887 -2.68762,-5.42279 -6.19512,-2.33636 -1.56672,1.37878 -3.32043,1.62252 -5.55329,0.772 -2.59242,-0.98744 -3.26179,-2.37117 -3.25536,-6.72894 0.0187,-12.68028 6.53249,-23.50756 12.9223,-21.47962 1.66335,0.52836 2.39907,1.90936 3.02424,2.31255 l 2.09747,1.35273 c 1.52767,0.98525 1.80579,0.98205 -0.0906,7.36634 -2.17468,7.32302 -1.67165,14.98024 1.09652,16.69106 2.30239,1.42302 6.93756,-3.76779 8.74165,-9.78932 2.37281,-7.91962 5.21877,-6.81409 4.34165,1.68655 -0.52649,5.09896 1.45205,11.6034 3.5289,11.6034 3.23607,0 9.06857,-7.30464 10.1336,-12.69121 1.2621,-6.38308 4.96053,-6.24791 4.96053,0.18109 0,7.42366 1.61961,13.96581 3.44471,13.91418 0.89709,-0.0279 4.77662,-4.60513 8.62039,-10.1772 3.84369,-5.57224 7.58337,-9.76364 8.3102,-9.31444 2.12903,1.31586 1.00379,29.50361 -1.21215,30.3656 -1.02732,0.39955 -2.15172,-0.0747 -2.49852,-1.06203 z M 109.9303,248.73553 c 1.45886,-1.32025 2.70903,-3.14111 3.18699,-4.1296 l 1.46555,-3.03099 c 0.80212,-1.42272 1.29866,-2.79068 1.54302,-5.39356 0.23898,-2.54555 -0.49877,-5.11567 -0.54964,-5.71396 -0.0514,-0.59837 -1.2823,-1.08781 -2.73635,-1.08781 -3.30962,0 -8.95962,10.84726 -8.95962,17.20132 0,5.05817 2.03915,5.78443 6.05007,2.1546 z m 58.54194,-19.27573 c -1.11123,-1.79791 2.84205,-3.78664 10.10466,-5.08318 3.19099,-0.56944 10.94528,-3.28994 17.23184,-6.04505 11.97941,-5.24992 15.37642,-5.70714 8.55851,-1.15177 -11.41464,7.62651 -33.99646,15.35197 -35.89501,12.28 z m -39.27315,-5.98195 c -0.54404,-0.88029 -0.3495,-2.2402 0.43221,-3.02193 0.92883,-0.92883 1.71792,-0.64877 2.27605,0.80561 1.01464,2.64406 -1.28234,4.5243 -2.70845,2.21678 z m -14.44071,-8.3818 c -1.59546,-0.51903 -5.73306,-2.78313 -9.19467,-5.03184 -4.38858,-2.85091 -7.767789,-3.96167 -11.162966,-3.66912 -5.549948,0.47795 -8.145552,-1.17686 -4.982735,-3.17716 3.939707,-2.49151 10.209425,-1.42573 18.529271,3.14962 9.63488,5.29865 11.88758,6.94505 11.88758,8.68798 0,1.41519 -0.82847,1.42173 -5.07648,0.0374 z"
         style="fill:#ffffff;stroke-width:1.45042193;fill-opacity:1" />
    </g>
  </g>
</svg>
