<?xml version="1.0" encoding="UTF-8" standalone="no"?>
<!-- Created with Inkscape (http://www.inkscape.org/) -->

<svg
   xmlns:dc="http://purl.org/dc/elements/1.1/"
   xmlns:cc="http://creativecommons.org/ns#"
   xmlns:rdf="http://www.w3.org/1999/02/22-rdf-syntax-ns#"
   xmlns:svg="http://www.w3.org/2000/svg"
   xmlns="http://www.w3.org/2000/svg"
   xmlns:sodipodi="http://sodipodi.sourceforge.net/DTD/sodipodi-0.dtd"
   xmlns:inkscape="http://www.inkscape.org/namespaces/inkscape"
   width="210mm"
   height="30mm"
   viewBox="0 0 210 30"
   version="1.1"
   id="svg8"
   inkscape:version="0.92.4 (5da689c313, 2019-01-14)"
   sodipodi:docname="firma_bianca.svg">
  <defs
     id="defs2" />
  <sodipodi:namedview
     id="base"
     pagecolor="#ffffff"
     bordercolor="#666666"
     borderopacity="1.0"
     inkscape:pageopacity="0.0"
     inkscape:pageshadow="2"
     inkscape:zoom="0.7"
     inkscape:cx="334.8944"
     inkscape:cy="238.92841"
     inkscape:document-units="mm"
     inkscape:current-layer="layer1"
     showgrid="false"
     inkscape:window-width="1920"
     inkscape:window-height="1001"
     inkscape:window-x="-9"
     inkscape:window-y="-9"
     inkscape:window-maximized="1" />
  <metadata
     id="metadata5">
    <rdf:RDF>
      <cc:Work
         rdf:about="">
        <dc:format>image/svg+xml</dc:format>
        <dc:type
           rdf:resource="http://purl.org/dc/dcmitype/StillImage" />
        <dc:title></dc:title>
      </cc:Work>
    </rdf:RDF>
  </metadata>
  <g
     inkscape:label="Livello 1"
     inkscape:groupmode="layer"
     id="layer1"
     transform="translate(0,-267)">
    <path
       style="fill:#fffffe;stroke-width:0.42660734;fill-opacity:1"
       d="m 60.26069,295.42612 c -1.304862,-2.39916 -1.695592,-15.87654 -0.53745,-18.53811 0.387475,-0.89048 0.833509,-2.19499 0.991148,-2.89891 0.199077,-0.8889 0.54186,-1.2798 1.122343,-1.2798 0.742767,0 0.829995,0.28467 0.784203,2.55962 -0.02821,1.40781 -0.187546,3.23157 -0.353763,4.05282 -0.561354,2.77337 -0.759355,8.2165 -0.288314,7.92537 0.242461,-0.14968 0.571713,-1.42933 0.73168,-2.84328 0.364851,-3.22473 1.221581,-4.41079 2.884624,-3.99338 0.659044,0.16518 1.405698,0.75599 1.659228,1.31242 0.662101,1.45315 1.061416,1.2533 1.39076,-0.69605 0.224471,-1.32865 0.516705,-1.76505 1.316361,-1.96574 2.184796,-0.54835 2.88744,0.63615 1.712837,2.8874 -0.427735,0.81986 -0.462451,1.2627 -0.125371,1.59979 0.741077,0.74108 1.178016,0.56853 2.869981,-1.13366 2.534224,-2.54945 3.944512,-3.5648 4.601364,-3.31271 1.052327,0.4036 1.782897,-0.65201 1.782897,-2.57664 0,-1.97771 0.819636,-2.66177 2.536481,-2.11689 0.715374,0.22725 0.805134,0.56999 0.649661,2.48175 -0.0992,1.22007 -0.305896,2.9382 -0.459275,3.81807 -0.294459,1.68915 0.17283,2.09225 1.112594,0.95986 0.390296,-0.47011 0.406317,-0.79022 0.06042,-1.20703 -0.377347,-0.45449 -0.17252,-0.55727 1.03263,-0.51727 1.108015,0.0352 1.759515,0.37137 2.477651,1.27183 0.793654,0.99532 1.18581,1.16887 2.114697,0.93571 0.89951,-0.22573 1.140328,-0.54079 1.140328,-1.49173 0,-1.4649 1.172302,-2.61765 2.661966,-2.61765 1.04424,0 2.3641,1.19659 3.55236,3.22053 0.43706,0.74445 0.48447,0.74249 1.19515,-0.0504 0.40713,-0.45349 1.10207,-1.30468 1.544549,-1.89121 1.10509,-1.46506 2.41553,-0.74247 2.21222,1.2199 -0.18086,1.74696 0.45802,1.69632 1.93374,-0.15318 0.65525,-0.82124 1.50381,-1.49315 1.88568,-1.49315 0.84676,0 1.82023,1.08917 1.47406,1.64926 -0.3663,0.59234 0.17796,1.76357 0.8193,1.76357 0.30283,0 1.13425,-0.66529 1.84823,-1.4785 0.71397,-0.81317 1.79154,-1.60233 2.39458,-1.75363 0.60302,-0.15124 1.20193,-0.44593 1.33086,-0.65459 0.38243,-0.61915 2.69316,-0.43232 3.82526,0.30988 1.36024,0.89128 1.31277,1.74116 -0.19903,3.5646 -1.30154,1.56991 -0.95398,1.49906 -6.21516,1.26638 -0.70388,-0.0303 -1.82158,0.0831 -2.48375,0.25345 -0.73848,0.19054 -1.5961,0.10036 -2.21827,-0.23278 -0.80968,-0.43333 -1.27056,-0.43688 -2.28443,-0.0155 -1.01741,0.42124 -1.57681,0.41519 -2.81153,-0.0303 -1.21784,-0.44036 -1.71567,-0.44845 -2.371649,-0.0403 -1.06674,0.66622 -2.65852,0.66425 -3.32682,-0.004 -0.41237,-0.41216 -0.69906,-0.41216 -1.35936,0 -1.010121,0.63085 -2.830325,0.68552 -3.194691,0.0957 -0.412411,-0.66728 -1.91974,-0.49985 -1.91974,0.21313 0,0.71035 -1.944463,0.88141 -2.929006,0.25746 -0.355478,-0.22521 -1.020805,-0.14062 -1.706431,0.21718 -1.327821,0.69281 -2.463067,0.75902 -2.830185,0.16537 -0.410852,-0.66481 -1.982334,-0.50236 -2.86479,0.29626 -0.668481,0.60496 -1.074517,0.64943 -2.486584,0.2726 -1.188088,-0.31693 -2.19162,-0.31591 -3.390208,0.004 -1.256403,0.33556 -2.074832,0.31994 -3.12319,-0.0595 -1.850315,-0.6691 -4.769453,-0.65831 -5.295863,0.0201 -0.227747,0.29326 -0.621892,2.28328 -0.875847,4.42219 -0.560133,4.71786 -1.41076,6.98955 -2.617195,6.98955 -0.472979,0 -1.094898,-0.43181 -1.382027,-0.95987 z m 4.622918,-12.34493 c -0.136188,-0.34011 -0.237268,-0.23933 -0.257726,0.25748 -0.01859,0.44995 0.08229,0.70168 0.224069,0.55994 0.141735,-0.14163 0.156912,-0.50972 0.03376,-0.81768 z m 14.426533,-1.12871 c 0,-0.77157 -0.834998,-0.63075 -1.000606,0.16886 -0.09216,0.4449 0.06778,0.63984 0.426627,0.52024 0.315671,-0.10529 0.573998,-0.41519 0.573998,-0.68904 z m 36.459919,-0.46961 c 0.66048,-1.23412 0.53865,-1.73451 -0.42222,-1.73451 -0.71398,0 -1.69587,1.37455 -1.69587,2.37412 0,0.5807 1.74736,0.0529 2.11805,-0.63961 z M 94.518701,280.8149 c 0,-0.22271 -0.20639,-0.47415 -0.45862,-0.55813 -0.252243,-0.0843 -0.458634,0.16731 -0.458634,0.55813 0,0.39099 0.206391,0.64222 0.458634,0.55813 0.25223,-0.0843 0.45862,-0.33507 0.45862,-0.55813 z m 34.978929,14.15171 c -0.38345,-0.46205 -0.38848,-0.90625 -0.0201,-1.83483 0.26756,-0.67383 0.52594,-2.85687 0.57407,-4.85125 0.0504,-1.9944 0.30887,-4.39407 0.57899,-5.33262 0.72762,-2.52667 0.67305,-8.31883 -0.0786,-8.31883 -0.3245,0 -0.69054,0.38395 -0.81325,0.85325 -0.20909,0.79998 -1.5441,1.17636 -2.12213,0.59832 -0.32853,-0.32852 2.18992,-4.4378 2.71946,-4.4378 0.22019,0 0.58304,-0.47967 0.80609,-1.06653 0.27965,-0.73566 0.72861,-1.06654 1.44702,-1.06654 1.28632,0 1.56344,0.71096 0.82708,2.12189 -0.31591,0.60581 -0.56357,2.45378 -0.56508,4.22034 -0.001,3.05614 0.0252,3.13515 0.95725,2.86932 2.74138,-0.7806 3.10681,-0.74875 4.32147,0.37689 1.59595,1.47905 2.87808,1.28628 3.33901,-0.50186 0.42729,-1.65832 0.82711,-1.94186 2.23853,-1.58757 1.2565,0.3154 1.36856,0.86736 0.39453,1.94371 -0.38041,0.42023 -0.58413,1.04448 -0.45247,1.38693 0.30786,0.80283 1.88528,0.41621 2.42641,-0.59511 0.22121,-0.41317 0.86329,-0.86669 1.42726,-1.00822 0.56399,-0.14149 1.34135,-0.73958 1.72751,-1.32891 0.57674,-0.8802 1.04316,-1.07152 2.61201,-1.07152 1.80369,0 1.9099,-0.066 1.9099,-1.18489 0,-1.52794 1.09424,-3.08119 2.17062,-3.08119 1.1933,0 1.49138,1.16605 0.69594,2.72198 -0.37439,0.73196 -0.74539,2.14666 -0.82488,3.14388 -0.11788,1.48022 -0.0101,1.81306 0.58241,1.81306 0.39957,0 1.20586,-0.6119 1.79113,-1.35983 0.91453,-1.16853 1.20043,-1.29902 2.03226,-0.92788 1.24531,0.55566 2.30449,4.56045 1.40383,5.30794 -0.77828,0.64597 -2.16788,0.11137 -2.44271,-0.93956 -0.18241,-0.69774 -0.43181,-0.81254 -1.21924,-0.5609 -0.54438,0.1739 -2.04565,0.36933 -3.33617,0.43333 -1.29045,0.0644 -3.16584,0.24738 -4.16741,0.40712 -1.2175,0.19398 -2.03417,0.11324 -2.46391,-0.24337 -0.52167,-0.43283 -0.91609,-0.38647 -2.09274,0.24741 -1.12174,0.60413 -1.67368,0.68097 -2.43874,0.33958 -0.72502,-0.32348 -1.36815,-0.28266 -2.41,0.1526 -1.72863,0.72231 -2.76346,0.43736 -4.31835,-1.18983 -0.65185,-0.68214 -1.29968,-1.24026 -1.43959,-1.24026 -0.14004,0 -0.69504,0.44845 -1.23367,0.9962 -1.18309,1.20358 -1.54249,3.26988 -0.56878,3.26988 0.36079,0 0.65604,-0.19191 0.65604,-0.42676 0,-0.5136 1.13972,-0.57189 1.44741,-0.0742 0.34111,0.55178 -0.98021,5.70907 -1.7671,6.89763 -0.389,0.58775 -0.8123,1.83649 -0.94043,2.77504 -0.2096,1.53412 -0.36579,1.71939 -1.54913,1.83489 -0.761,0.0741 -1.52965,-0.12904 -1.82229,-0.4812 z m 22.49312,-15.79073 c 0.46508,-0.56062 0.24941,-1.13392 -0.42677,-1.13392 -0.18745,0 -0.54596,0.38395 -0.79713,0.8532 -0.35623,0.66607 -0.32447,0.8532 0.14621,0.8532 0.33154,0 0.81651,-0.25749 1.07781,-0.57248 z m 5.60185,14.22395 c 0,-0.2348 0.19191,-0.42678 0.42676,-0.42678 0.23481,0 0.42677,0.1919 0.42677,0.42678 0,0.2348 -0.1919,0.42677 -0.42677,0.42677 -0.2348,0 -0.42676,-0.1919 -0.42676,-0.42677 z M 12.789871,286.33031 c -0.485374,-0.48521 -0.670379,-1.51864 -0.670379,-3.74447 0,-2.9066 0.07237,-3.13759 1.328289,-4.23964 2.641997,-2.31829 5.229404,-1.95345 5.747929,0.81052 0.18044,0.96173 0.105906,1.88593 -0.190317,2.36021 -0.267756,0.42879 -0.486837,1.35802 -0.486837,2.06511 0,1.71026 1.209128,1.74574 1.549178,0.0453 0.313205,-1.56601 2.781537,-4.01082 3.844963,-3.80832 0.56588,0.10789 0.852505,0.63508 1.004968,1.84887 0.283576,2.2577 1.064282,2.30939 3.368622,0.22272 2.399667,-2.17272 3.322727,-2.46657 4.391341,-1.39797 0.827548,0.82754 0.824,0.84236 -0.460988,1.92357 -0.71222,0.59929 -1.542003,1.17999 -1.843965,1.29044 -0.406773,0.14872 -0.425416,0.33255 -0.0719,0.7099 0.563884,0.60168 2.992537,-0.25092 3.928077,-1.37908 0.747185,-0.90103 1.829436,-6.14597 1.521401,-7.37329 -0.26841,-1.06951 1.112031,-2.14384 2.212285,-1.72162 0.860799,0.33054 0.845013,6.18035 -0.01965,7.32366 -0.609679,0.80604 -0.885729,2.32122 -0.422896,2.32122 0.126818,0 0.784867,-0.40964 1.462332,-0.91064 1.456956,-1.07716 2.573163,-0.80318 2.573163,0.63176 0,1.57603 -0.964493,2.05188 -4.354671,2.14837 -1.711025,0.0504 -3.530277,0.31997 -4.042776,0.60269 -1.328284,0.73281 -3.765675,0.63945 -4.43749,-0.16983 -0.408232,-0.49178 -1.020878,-0.62338 -2.180213,-0.46811 -1.180223,0.15822 -1.889086,-10e-4 -2.64463,-0.59565 -0.567717,-0.44644 -1.143329,-0.81194 -1.279138,-0.81194 -0.135783,0 -0.898767,0.71126 -1.695456,1.58064 l -1.448527,1.58056 -1.799435,-0.81141 c -1.680243,-0.75767 -1.826271,-0.76346 -2.204574,-0.0878 -0.507841,0.90746 -1.798889,0.93325 -2.678611,0.0534 z m 3.315541,-4.47422 c 0.975667,-2.06259 1.111511,-2.68651 0.694327,-3.18923 -0.285238,-0.34364 -0.639124,-0.6189 -0.786364,-0.61149 -0.719954,0.0352 -1.814219,2.33543 -2.02025,4.24513 -0.323028,2.99413 0.575149,2.80517 2.112287,-0.44441 z m 26.450414,2.77987 c -0.138955,-0.36228 -0.180885,-0.71265 -0.09326,-0.77911 1.969347,-1.49317 5.065337,-2.5349 5.065337,-1.70439 0,0.35371 -1.763282,1.92902 -2.920101,2.60857 -1.201484,0.70578 -1.745882,0.6726 -2.051971,-0.12483 z m 145.859154,-1.76243 c -0.52795,-0.3683 -0.95986,-0.99811 -0.95986,-1.39967 0,-1.03177 -0.46557,-1.37108 -1.12735,-0.82182 -0.88716,0.73631 -5.32718,0.97222 -15.4915,0.82311 -0.57621,-0.0101 -1.23854,0.17526 -1.47179,0.40864 -0.58222,0.58222 -2.10692,0.53316 -2.72783,-0.0878 -0.85466,-0.85467 -0.59329,-2.85835 0.51787,-3.96947 1.26999,-1.27 2.99923,-1.74085 4.46936,-1.21694 0.88822,0.31643 1.11245,0.67386 1.10914,1.76772 -0.004,1.16448 0.15008,1.37097 1.0213,1.37097 0.651,0 1.52037,-0.57254 2.38087,-1.56799 1.56119,-1.80606 3.00571,-1.79527 2.55037,0.0201 -0.51463,2.05044 1.53709,1.86662 2.62391,-0.23479 0.51206,-0.99027 0.89022,-1.22622 1.79728,-1.12147 0.70077,0.0811 1.31303,0.50694 1.56991,1.09248 0.44088,1.00461 1.26242,1.26058 1.71193,0.53324 0.14504,-0.2348 0.81529,-0.42677 1.48953,-0.42677 0.90172,0 1.30193,0.25394 1.51341,0.95986 0.15822,0.5279 0.66124,1.25635 1.11803,1.61877 0.68999,0.54741 0.75626,0.85422 0.39151,1.81306 -0.49581,1.30355 -1.0959,1.40978 -2.48629,0.43989 z m -18.54366,-3.91245 c 0.12238,-0.36734 -0.0831,-0.52092 -0.56921,-0.42679 -0.41823,0.0811 -0.84636,0.40562 -0.95145,0.72144 -0.12238,0.36731 0.0827,0.52086 0.56921,0.42678 0.41821,-0.0811 0.84634,-0.40561 0.95145,-0.72139 z m 29.58358,1.91988 c -0.47614,-0.57377 -0.41216,-0.70048 0.4409,-0.87583 0.54865,-0.11296 1.57347,-0.33105 2.27737,-0.48473 3.49971,-0.76546 5.4585,-0.14149 3.1017,0.98805 -1.96951,0.94394 -5.17535,1.14926 -5.81985,0.37285 z m -8.72914,-3.55 c -0.5431,-0.54312 -0.28065,-2.18542 0.39051,-2.4429 1.1732,-0.45046 8.75463,-0.28015 10.47413,0.2353 0.93381,0.27965 1.64925,0.76377 1.64925,1.11565 0,0.49934 -0.44036,0.56904 -2.23968,0.35423 -4.51192,-0.53854 -7.97702,-0.40965 -8.79101,0.32701 -0.85019,0.76941 -1.06497,0.82893 -1.48308,0.41065 z M 90.046417,276.47771 c -1.223107,-1.2231 0.713648,-2.86867 3.993644,-3.39315 2.39588,-0.38293 2.15939,0.41822 -0.675985,2.29108 -2.115885,1.39754 -2.796206,1.62352 -3.317659,1.10207 z m 72.238833,-1.09077 c 0,-0.60161 2.29175,-1.53628 4.05281,-1.65288 2.0404,-0.13497 3.62612,0.0746 3.62612,0.47918 0,0.64801 -1.6097,1.14533 -4.8203,1.48913 -2.3587,0.25243 -2.85863,0.19749 -2.85863,-0.31493 z"
       id="path826"
       inkscape:connector-curvature="0" />
  </g>
</svg>
